<svg width="16" height="16" viewBox="0 0 16 16" fill="none" xmlns="http://www.w3.org/2000/svg">
<path d="M10 12V9.5C10 9.10218 9.84196 8.72064 9.56066 8.43934C9.27936 8.15804 8.89782 8 8.5 8V8C8.10218 8 7.72064 8.15804 7.43934 8.43934C7.15804 8.72064 7 9.10218 7 9.5V13C7.05225 13.501 7.21362 13.9844 7.47277 14.4163C7.73192 14.8483 8.08255 15.2181 8.5 15.5H12L13.348 11.008C13.4473 10.6749 13.4587 10.3218 13.381 9.983L12.181 4.774C12.0663 4.27665 11.7658 3.84198 11.341 3.559L10.5 3" stroke="#3B3B3B" stroke-linecap="round" stroke-linejoin="round"/>
<path d="M10.5 6.5V0.5H2.5V11.5H4.5" stroke="#3B3B3B" stroke-linecap="round" stroke-linejoin="round"/>
</svg>
