<svg width="16" height="16" viewBox="0 0 16 16" fill="none" xmlns="http://www.w3.org/2000/svg">
<path d="M10.084 1.841L14.143 5.9" stroke="#444444" stroke-miterlimit="10" stroke-linecap="round" stroke-linejoin="round"/>
<path d="M8.49188 2.72399C6.49788 1.86499 4.09688 2.24999 2.46788 3.87899C2.13388 4.21299 1.85888 4.58199 1.62988 4.96999L3.96988 7.30999" stroke="#444444" stroke-miterlimit="10" stroke-linecap="round" stroke-linejoin="round"/>
<path d="M13.2659 7.47301C14.1459 9.47401 13.7609 11.893 12.1219 13.532C11.7879 13.866 11.4189 14.141 11.0299 14.371L8.67993 12.021" stroke="#444444" stroke-miterlimit="10" stroke-linecap="round" stroke-linejoin="round"/>
<path d="M6.81193 13.049L2.95093 9.188C2.95093 9.188 6.24893 0.983 15.4999 0.5C14.9769 9.711 6.81193 13.049 6.81193 13.049Z" stroke="#444444" stroke-miterlimit="10" stroke-linecap="round" stroke-linejoin="round"/>
<mask id="path-5-inside-1" fill="white">
<path d="M3.914 14.914C3.133 15.695 0 16 0 16C0 16 0.305 12.867 1.086 12.086C1.867 11.305 3.133 11.305 3.914 12.086C4.695 12.867 4.695 14.133 3.914 14.914Z"/>
</mask>
<path d="M0 16L-0.995295 15.9031L-1.11309 17.1131L0.0968929 16.9953L0 16ZM3.20689 14.2069C3.20832 14.2055 3.17139 14.2401 3.06168 14.2969C2.95775 14.3508 2.81977 14.4085 2.6485 14.4673C2.3048 14.5852 1.88877 14.6862 1.47047 14.7688C1.05634 14.8505 0.661899 14.9099 0.369547 14.9489C0.223984 14.9683 0.105194 14.9825 0.0237216 14.9917C-0.0169829 14.9963 -0.0482793 14.9997 -0.0688432 15.0018C-0.0791225 15.0029 -0.0867112 15.0037 -0.0914436 15.0042C-0.0938095 15.0044 -0.0954605 15.0046 -0.0963759 15.0046C-0.0968336 15.0047 -0.0971072 15.0047 -0.0971943 15.0047C-0.0972378 15.0047 -0.0972347 15.0047 -0.0971845 15.0047C-0.0971596 15.0047 -0.0970865 15.0047 -0.0970741 15.0047C-0.0969894 15.0047 -0.0968929 15.0047 0 16C0.0968929 16.9953 0.0970133 16.9953 0.0971457 16.9953C0.0972058 16.9953 0.0973505 16.9952 0.0974707 16.9952C0.0977114 16.9952 0.0980001 16.9952 0.0983364 16.9951C0.099009 16.9951 0.0998722 16.995 0.100923 16.9949C0.103026 16.9947 0.10588 16.9944 0.109466 16.994C0.116637 16.9933 0.126736 16.9923 0.139595 16.9909C0.165306 16.9882 0.202082 16.9843 0.248571 16.979C0.341486 16.9685 0.473563 16.9527 0.633921 16.9314C0.953413 16.8888 1.39103 16.8231 1.85778 16.7309C2.32036 16.6396 2.83402 16.518 3.29741 16.3591C3.72365 16.2129 4.25418 15.988 4.62111 15.6211L3.20689 14.2069ZM0 16C0.995295 16.0969 0.995285 16.097 0.995277 16.0971C0.995276 16.0971 0.995269 16.0972 0.995266 16.0972C0.995261 16.0972 0.995261 16.0972 0.995265 16.0972C0.995274 16.0971 0.995301 16.0968 0.995346 16.0964C0.995437 16.0955 0.995602 16.0938 0.99584 16.0914C0.996318 16.0867 0.997093 16.0791 0.99817 16.0688C1.00033 16.0483 1.00369 16.017 1.00829 15.9763C1.01751 15.8948 1.03167 15.776 1.05108 15.6304C1.09007 15.3381 1.14945 14.9437 1.2312 14.5295C1.31376 14.1112 1.41483 13.6952 1.53273 13.3515C1.59148 13.1802 1.64924 13.0422 1.70307 12.9383C1.75989 12.8286 1.79453 12.7917 1.79311 12.7931L0.378893 11.3789C0.0119639 11.7458 -0.212866 12.2763 -0.359073 12.7026C-0.518022 13.166 -0.639637 13.6796 -0.730945 14.1422C-0.823076 14.609 -0.888759 15.0466 -0.931365 15.3661C-0.95275 15.5264 -0.968517 15.6585 -0.979029 15.7514C-0.984289 15.7979 -0.988244 15.8347 -0.990938 15.8604C-0.992286 15.8733 -0.993319 15.8834 -0.994043 15.8905C-0.994405 15.8941 -0.99469 15.897 -0.994898 15.8991C-0.995002 15.9001 -0.995088 15.901 -0.995154 15.9017C-0.995187 15.902 -0.995215 15.9023 -0.995238 15.9025C-0.99525 15.9026 -0.995264 15.9028 -0.99527 15.9028C-0.995283 15.903 -0.995295 15.9031 0 16ZM1.79311 12.7931C2.18358 12.4026 2.81642 12.4026 3.20689 12.7931L4.62111 11.3789C3.44958 10.2074 1.55042 10.2074 0.378893 11.3789L1.79311 12.7931ZM3.20689 12.7931C3.59737 13.1836 3.59737 13.8164 3.20689 14.2069L4.62111 15.6211C5.79263 14.4496 5.79263 12.5504 4.62111 11.3789L3.20689 12.7931Z" fill="#3B3B3B" mask="url(#path-5-inside-1)"/>
<path d="M9 8C9.55228 8 10 7.55228 10 7C10 6.44772 9.55228 6 9 6C8.44772 6 8 6.44772 8 7C8 7.55228 8.44772 8 9 8Z" fill="#444444"/>
</svg>
